<?xml version="1.0" encoding="UTF-8" standalone="no"?>
<!DOCTYPE svg PUBLIC "-//W3C//DTD SVG 1.1//EN" "http://www.w3.org/Graphics/SVG/1.1/DTD/svg11.dtd">
<svg xmlns="http://www.w3.org/2000/svg" xmlns:dc="http://purl.org/dc/elements/1.1/" xmlns:xl="http://www.w3.org/1999/xlink" version="1.1" viewBox="-1357 287.5 1950 531.0939" width="1950" height="531.0939">
  <defs>
    <linearGradient x1="0" x2="1" id="Gradient" gradientUnits="userSpaceOnUse">
      <stop offset="0" stop-color="#ff2600"/>
      <stop offset=".7017428" stop-color="#ff9400"/>
      <stop offset="1" stop-color="#fffc00"/>
    </linearGradient>
    <linearGradient id="Obj_Gradient" xl:href="#Gradient" gradientTransform="translate(-1081.25 111.25) rotate(45) scale(1307.4404)"/>
    <radialGradient cx="0" cy="0" r="1" id="Gradient_2" gradientUnits="userSpaceOnUse">
      <stop offset="0" stop-color="#ff2600"/>
      <stop offset=".7736779" stop-color="#ff9300"/>
      <stop offset="1" stop-color="white"/>
    </radialGradient>
    <radialGradient id="Obj_Gradient_2" xl:href="#Gradient_2" gradientTransform="translate(481.25 388) scale(141.42136)"/>
  </defs>
  <g id="Canvas_1" stroke-dasharray="none" fill-opacity="1" stroke="none" stroke-opacity="1" fill="none">
    <title>Canvas 1</title>
    <g id="Canvas_1_Text">
      <title>Text</title>
      <g id="Graphic_4">
        <text transform="translate(-1339.8935 336.39394)" fill="black">
          <tspan font-family="Helvetica Neue" font-size="400" fill="black" x="0" y="381" xml:space="preserve">MatPES.ai</tspan>
        </text>
      </g>
      <g id="Graphic_5">
        <ellipse cx="500.5" cy="448" rx="92.5001478059255" ry="32.0000511328607" fill="white"/>
      </g>
      <g id="Graphic_6">
        <rect x="-1357" y="387" width="1476" height="373" fill="url(#Obj_Gradient)"/>
      </g>
    </g>
    <g id="Canvas_1_Logo">
      <title>Logo</title>
      <g id="Graphic_2">
        <title>Blur On</title>
        <path d="M 418.0921 398.5263 C 412.30263 398.5263 407.5658 403.26316 407.5658 409.05263 C 407.5658 414.8421 412.30263 419.57895 418.0921 419.57895 C 423.8816 419.57895 428.6184 414.8421 428.6184 409.05263 C 428.6184 403.26316 423.8816 398.5263 418.0921 398.5263 Z M 418.0921 440.6316 C 412.30263 440.6316 407.5658 445.3684 407.5658 451.1579 C 407.5658 456.94737 412.30263 461.6842 418.0921 461.6842 C 423.8816 461.6842 428.6184 456.94737 428.6184 451.1579 C 428.6184 445.3684 423.8816 440.6316 418.0921 440.6316 Z M 418.0921 356.42105 C 412.30263 356.42105 407.5658 361.1579 407.5658 366.94737 C 407.5658 372.73684 412.30263 377.4737 418.0921 377.4737 C 423.8816 377.4737 428.6184 372.73684 428.6184 366.94737 C 428.6184 361.1579 423.8816 356.42105 418.0921 356.42105 Z M 386.51316 361.6842 C 383.5658 361.6842 381.25 364 381.25 366.94737 C 381.25 369.89474 383.5658 372.21053 386.51316 372.21053 C 389.46053 372.21053 391.7763 369.89474 391.7763 366.94737 C 391.7763 364 389.46053 361.6842 386.51316 361.6842 Z M 418.0921 314.3158 C 412.30263 314.3158 407.5658 319.05263 407.5658 324.8421 C 407.5658 330.63158 412.30263 335.36842 418.0921 335.36842 C 423.8816 335.36842 428.6184 330.63158 428.6184 324.8421 C 428.6184 319.05263 423.8816 314.3158 418.0921 314.3158 Z M 575.98684 372.21053 C 578.9342 372.21053 581.25 369.89474 581.25 366.94737 C 581.25 364 578.9342 361.6842 575.98684 361.6842 C 573.0395 361.6842 570.7237 364 570.7237 366.94737 C 570.7237 369.89474 573.0395 372.21053 575.98684 372.21053 Z M 502.30263 335.36842 C 508.0921 335.36842 512.82895 330.63158 512.82895 324.8421 C 512.82895 319.05263 508.0921 314.3158 502.30263 314.3158 C 496.51316 314.3158 491.7763 319.05263 491.7763 324.8421 C 491.7763 330.63158 496.51316 335.36842 502.30263 335.36842 Z M 502.30263 298.5263 C 505.25 298.5263 507.5658 296.21053 507.5658 293.26316 C 507.5658 290.3158 505.25 288 502.30263 288 C 499.35526 288 497.0395 290.3158 497.0395 293.26316 C 497.0395 296.21053 499.35526 298.5263 502.30263 298.5263 Z M 386.51316 403.78947 C 383.5658 403.78947 381.25 406.10526 381.25 409.05263 C 381.25 412 383.5658 414.3158 386.51316 414.3158 C 389.46053 414.3158 391.7763 412 391.7763 409.05263 C 391.7763 406.10526 389.46053 403.78947 386.51316 403.78947 Z M 460.19737 477.4737 C 457.25 477.4737 454.9342 479.7895 454.9342 482.73684 C 454.9342 485.6842 457.25 488 460.19737 488 C 463.14474 488 465.4605 485.6842 465.4605 482.73684 C 465.4605 479.7895 463.14474 477.4737 460.19737 477.4737 Z M 460.19737 298.5263 C 463.14474 298.5263 465.4605 296.21053 465.4605 293.26316 C 465.4605 290.3158 463.14474 288 460.19737 288 C 457.25 288 454.9342 290.3158 454.9342 293.26316 C 454.9342 296.21053 457.25 298.5263 460.19737 298.5263 Z M 460.19737 335.36842 C 465.98684 335.36842 470.7237 330.63158 470.7237 324.8421 C 470.7237 319.05263 465.98684 314.3158 460.19737 314.3158 C 454.4079 314.3158 449.67105 319.05263 449.67105 324.8421 C 449.67105 330.63158 454.4079 335.36842 460.19737 335.36842 Z M 460.19737 393.26316 C 451.4605 393.26316 444.4079 400.3158 444.4079 409.05263 C 444.4079 417.78947 451.4605 424.8421 460.19737 424.8421 C 468.9342 424.8421 475.98684 417.78947 475.98684 409.05263 C 475.98684 400.3158 468.9342 393.26316 460.19737 393.26316 Z M 544.4079 398.5263 C 538.6184 398.5263 533.8816 403.26316 533.8816 409.05263 C 533.8816 414.8421 538.6184 419.57895 544.4079 419.57895 C 550.1974 419.57895 554.9342 414.8421 554.9342 409.05263 C 554.9342 403.26316 550.1974 398.5263 544.4079 398.5263 Z M 544.4079 440.6316 C 538.6184 440.6316 533.8816 445.3684 533.8816 451.1579 C 533.8816 456.94737 538.6184 461.6842 544.4079 461.6842 C 550.1974 461.6842 554.9342 456.94737 554.9342 451.1579 C 554.9342 445.3684 550.1974 440.6316 544.4079 440.6316 Z M 544.4079 356.42105 C 538.6184 356.42105 533.8816 361.1579 533.8816 366.94737 C 533.8816 372.73684 538.6184 377.4737 544.4079 377.4737 C 550.1974 377.4737 554.9342 372.73684 554.9342 366.94737 C 554.9342 361.1579 550.1974 356.42105 544.4079 356.42105 Z M 544.4079 314.3158 C 538.6184 314.3158 533.8816 319.05263 533.8816 324.8421 C 533.8816 330.63158 538.6184 335.36842 544.4079 335.36842 C 550.1974 335.36842 554.9342 330.63158 554.9342 324.8421 C 554.9342 319.05263 550.1974 314.3158 544.4079 314.3158 Z M 575.98684 403.78947 C 573.0395 403.78947 570.7237 406.10526 570.7237 409.05263 C 570.7237 412 573.0395 414.3158 575.98684 414.3158 C 578.9342 414.3158 581.25 412 581.25 409.05263 C 581.25 406.10526 578.9342 403.78947 575.98684 403.78947 Z M 502.30263 440.6316 C 496.51316 440.6316 491.7763 445.3684 491.7763 451.1579 C 491.7763 456.94737 496.51316 461.6842 502.30263 461.6842 C 508.0921 461.6842 512.82895 456.94737 512.82895 451.1579 C 512.82895 445.3684 508.0921 440.6316 502.30263 440.6316 Z M 502.30263 477.4737 C 499.35526 477.4737 497.0395 479.7895 497.0395 482.73684 C 497.0395 485.6842 499.35526 488 502.30263 488 C 505.25 488 507.5658 485.6842 507.5658 482.73684 C 507.5658 479.7895 505.25 477.4737 502.30263 477.4737 Z M 460.19737 351.1579 C 451.4605 351.1579 444.4079 358.21053 444.4079 366.94737 C 444.4079 375.6842 451.4605 382.73684 460.19737 382.73684 C 468.9342 382.73684 475.98684 375.6842 475.98684 366.94737 C 475.98684 358.21053 468.9342 351.1579 460.19737 351.1579 Z M 460.19737 440.6316 C 454.4079 440.6316 449.67105 445.3684 449.67105 451.1579 C 449.67105 456.94737 454.4079 461.6842 460.19737 461.6842 C 465.98684 461.6842 470.7237 456.94737 470.7237 451.1579 C 470.7237 445.3684 465.98684 440.6316 460.19737 440.6316 Z M 502.30263 393.26316 C 493.5658 393.26316 486.51316 400.3158 486.51316 409.05263 C 486.51316 417.78947 493.5658 424.8421 502.30263 424.8421 C 511.0395 424.8421 518.0921 417.78947 518.0921 409.05263 C 518.0921 400.3158 511.0395 393.26316 502.30263 393.26316 Z M 502.30263 351.1579 C 493.5658 351.1579 486.51316 358.21053 486.51316 366.94737 C 486.51316 375.6842 493.5658 382.73684 502.30263 382.73684 C 511.0395 382.73684 518.0921 375.6842 518.0921 366.94737 C 518.0921 358.21053 511.0395 351.1579 502.30263 351.1579 Z" fill="url(#Obj_Gradient_2)"/>
        <path d="M 418.0921 398.5263 C 412.30263 398.5263 407.5658 403.26316 407.5658 409.05263 C 407.5658 414.8421 412.30263 419.57895 418.0921 419.57895 C 423.8816 419.57895 428.6184 414.8421 428.6184 409.05263 C 428.6184 403.26316 423.8816 398.5263 418.0921 398.5263 Z M 418.0921 440.6316 C 412.30263 440.6316 407.5658 445.3684 407.5658 451.1579 C 407.5658 456.94737 412.30263 461.6842 418.0921 461.6842 C 423.8816 461.6842 428.6184 456.94737 428.6184 451.1579 C 428.6184 445.3684 423.8816 440.6316 418.0921 440.6316 Z M 418.0921 356.42105 C 412.30263 356.42105 407.5658 361.1579 407.5658 366.94737 C 407.5658 372.73684 412.30263 377.4737 418.0921 377.4737 C 423.8816 377.4737 428.6184 372.73684 428.6184 366.94737 C 428.6184 361.1579 423.8816 356.42105 418.0921 356.42105 Z M 386.51316 361.6842 C 383.5658 361.6842 381.25 364 381.25 366.94737 C 381.25 369.89474 383.5658 372.21053 386.51316 372.21053 C 389.46053 372.21053 391.7763 369.89474 391.7763 366.94737 C 391.7763 364 389.46053 361.6842 386.51316 361.6842 Z M 418.0921 314.3158 C 412.30263 314.3158 407.5658 319.05263 407.5658 324.8421 C 407.5658 330.63158 412.30263 335.36842 418.0921 335.36842 C 423.8816 335.36842 428.6184 330.63158 428.6184 324.8421 C 428.6184 319.05263 423.8816 314.3158 418.0921 314.3158 Z M 575.98684 372.21053 C 578.9342 372.21053 581.25 369.89474 581.25 366.94737 C 581.25 364 578.9342 361.6842 575.98684 361.6842 C 573.0395 361.6842 570.7237 364 570.7237 366.94737 C 570.7237 369.89474 573.0395 372.21053 575.98684 372.21053 Z M 502.30263 335.36842 C 508.0921 335.36842 512.82895 330.63158 512.82895 324.8421 C 512.82895 319.05263 508.0921 314.3158 502.30263 314.3158 C 496.51316 314.3158 491.7763 319.05263 491.7763 324.8421 C 491.7763 330.63158 496.51316 335.36842 502.30263 335.36842 Z M 502.30263 298.5263 C 505.25 298.5263 507.5658 296.21053 507.5658 293.26316 C 507.5658 290.3158 505.25 288 502.30263 288 C 499.35526 288 497.0395 290.3158 497.0395 293.26316 C 497.0395 296.21053 499.35526 298.5263 502.30263 298.5263 Z M 386.51316 403.78947 C 383.5658 403.78947 381.25 406.10526 381.25 409.05263 C 381.25 412 383.5658 414.3158 386.51316 414.3158 C 389.46053 414.3158 391.7763 412 391.7763 409.05263 C 391.7763 406.10526 389.46053 403.78947 386.51316 403.78947 Z M 460.19737 477.4737 C 457.25 477.4737 454.9342 479.7895 454.9342 482.73684 C 454.9342 485.6842 457.25 488 460.19737 488 C 463.14474 488 465.4605 485.6842 465.4605 482.73684 C 465.4605 479.7895 463.14474 477.4737 460.19737 477.4737 Z M 460.19737 298.5263 C 463.14474 298.5263 465.4605 296.21053 465.4605 293.26316 C 465.4605 290.3158 463.14474 288 460.19737 288 C 457.25 288 454.9342 290.3158 454.9342 293.26316 C 454.9342 296.21053 457.25 298.5263 460.19737 298.5263 Z M 460.19737 335.36842 C 465.98684 335.36842 470.7237 330.63158 470.7237 324.8421 C 470.7237 319.05263 465.98684 314.3158 460.19737 314.3158 C 454.4079 314.3158 449.67105 319.05263 449.67105 324.8421 C 449.67105 330.63158 454.4079 335.36842 460.19737 335.36842 Z M 460.19737 393.26316 C 451.4605 393.26316 444.4079 400.3158 444.4079 409.05263 C 444.4079 417.78947 451.4605 424.8421 460.19737 424.8421 C 468.9342 424.8421 475.98684 417.78947 475.98684 409.05263 C 475.98684 400.3158 468.9342 393.26316 460.19737 393.26316 Z M 544.4079 398.5263 C 538.6184 398.5263 533.8816 403.26316 533.8816 409.05263 C 533.8816 414.8421 538.6184 419.57895 544.4079 419.57895 C 550.1974 419.57895 554.9342 414.8421 554.9342 409.05263 C 554.9342 403.26316 550.1974 398.5263 544.4079 398.5263 Z M 544.4079 440.6316 C 538.6184 440.6316 533.8816 445.3684 533.8816 451.1579 C 533.8816 456.94737 538.6184 461.6842 544.4079 461.6842 C 550.1974 461.6842 554.9342 456.94737 554.9342 451.1579 C 554.9342 445.3684 550.1974 440.6316 544.4079 440.6316 Z M 544.4079 356.42105 C 538.6184 356.42105 533.8816 361.1579 533.8816 366.94737 C 533.8816 372.73684 538.6184 377.4737 544.4079 377.4737 C 550.1974 377.4737 554.9342 372.73684 554.9342 366.94737 C 554.9342 361.1579 550.1974 356.42105 544.4079 356.42105 Z M 544.4079 314.3158 C 538.6184 314.3158 533.8816 319.05263 533.8816 324.8421 C 533.8816 330.63158 538.6184 335.36842 544.4079 335.36842 C 550.1974 335.36842 554.9342 330.63158 554.9342 324.8421 C 554.9342 319.05263 550.1974 314.3158 544.4079 314.3158 Z M 575.98684 403.78947 C 573.0395 403.78947 570.7237 406.10526 570.7237 409.05263 C 570.7237 412 573.0395 414.3158 575.98684 414.3158 C 578.9342 414.3158 581.25 412 581.25 409.05263 C 581.25 406.10526 578.9342 403.78947 575.98684 403.78947 Z M 502.30263 440.6316 C 496.51316 440.6316 491.7763 445.3684 491.7763 451.1579 C 491.7763 456.94737 496.51316 461.6842 502.30263 461.6842 C 508.0921 461.6842 512.82895 456.94737 512.82895 451.1579 C 512.82895 445.3684 508.0921 440.6316 502.30263 440.6316 Z M 502.30263 477.4737 C 499.35526 477.4737 497.0395 479.7895 497.0395 482.73684 C 497.0395 485.6842 499.35526 488 502.30263 488 C 505.25 488 507.5658 485.6842 507.5658 482.73684 C 507.5658 479.7895 505.25 477.4737 502.30263 477.4737 Z M 460.19737 351.1579 C 451.4605 351.1579 444.4079 358.21053 444.4079 366.94737 C 444.4079 375.6842 451.4605 382.73684 460.19737 382.73684 C 468.9342 382.73684 475.98684 375.6842 475.98684 366.94737 C 475.98684 358.21053 468.9342 351.1579 460.19737 351.1579 Z M 460.19737 440.6316 C 454.4079 440.6316 449.67105 445.3684 449.67105 451.1579 C 449.67105 456.94737 454.4079 461.6842 460.19737 461.6842 C 465.98684 461.6842 470.7237 456.94737 470.7237 451.1579 C 470.7237 445.3684 465.98684 440.6316 460.19737 440.6316 Z M 502.30263 393.26316 C 493.5658 393.26316 486.51316 400.3158 486.51316 409.05263 C 486.51316 417.78947 493.5658 424.8421 502.30263 424.8421 C 511.0395 424.8421 518.0921 417.78947 518.0921 409.05263 C 518.0921 400.3158 511.0395 393.26316 502.30263 393.26316 Z M 502.30263 351.1579 C 493.5658 351.1579 486.51316 358.21053 486.51316 366.94737 C 486.51316 375.6842 493.5658 382.73684 502.30263 382.73684 C 511.0395 382.73684 518.0921 375.6842 518.0921 366.94737 C 518.0921 358.21053 511.0395 351.1579 502.30263 351.1579 Z" stroke="black" stroke-linecap="round" stroke-linejoin="round" stroke-width="1"/>
      </g>
    </g>
  </g>
</svg>
